<mxfile host="app.diagrams.net" modified="2023-09-15T09:56:51.576Z" agent="Mozilla/5.0 (Windows NT 10.0; Win64; x64) AppleWebKit/537.36 (KHTML, like Gecko) Chrome/115.0.0.0 Safari/537.36" etag="kVtW5TB9n1vIWqCWDH1a" version="21.6.5" type="github">
  <diagram name="第 1 页" id="V-jUfaKgBopeDCFPtn5s">
    <mxGraphModel dx="2261" dy="790" grid="1" gridSize="10" guides="1" tooltips="1" connect="1" arrows="1" fold="1" page="1" pageScale="1" pageWidth="827" pageHeight="1169" math="0" shadow="0">
      <root>
        <mxCell id="0" />
        <mxCell id="1" parent="0" />
        <mxCell id="g1EsS8LT877fpJEOsQrV-47" style="edgeStyle=orthogonalEdgeStyle;rounded=0;orthogonalLoop=1;jettySize=auto;html=1;exitX=0.5;exitY=1;exitDx=0;exitDy=0;entryX=0.5;entryY=0;entryDx=0;entryDy=0;" edge="1" parent="1" source="g1EsS8LT877fpJEOsQrV-1" target="g1EsS8LT877fpJEOsQrV-5">
          <mxGeometry relative="1" as="geometry" />
        </mxCell>
        <mxCell id="g1EsS8LT877fpJEOsQrV-48" style="edgeStyle=orthogonalEdgeStyle;rounded=0;orthogonalLoop=1;jettySize=auto;html=1;exitX=0.5;exitY=1;exitDx=0;exitDy=0;entryX=0.5;entryY=0;entryDx=0;entryDy=0;" edge="1" parent="1" source="g1EsS8LT877fpJEOsQrV-1" target="g1EsS8LT877fpJEOsQrV-4">
          <mxGeometry relative="1" as="geometry" />
        </mxCell>
        <mxCell id="g1EsS8LT877fpJEOsQrV-49" style="edgeStyle=orthogonalEdgeStyle;rounded=0;orthogonalLoop=1;jettySize=auto;html=1;exitX=0.5;exitY=1;exitDx=0;exitDy=0;entryX=0.5;entryY=0;entryDx=0;entryDy=0;" edge="1" parent="1" source="g1EsS8LT877fpJEOsQrV-1" target="g1EsS8LT877fpJEOsQrV-42">
          <mxGeometry relative="1" as="geometry" />
        </mxCell>
        <mxCell id="g1EsS8LT877fpJEOsQrV-50" style="edgeStyle=orthogonalEdgeStyle;rounded=0;orthogonalLoop=1;jettySize=auto;html=1;exitX=0.5;exitY=1;exitDx=0;exitDy=0;entryX=0.558;entryY=0.033;entryDx=0;entryDy=0;entryPerimeter=0;" edge="1" parent="1" source="g1EsS8LT877fpJEOsQrV-1" target="g1EsS8LT877fpJEOsQrV-6">
          <mxGeometry relative="1" as="geometry" />
        </mxCell>
        <mxCell id="g1EsS8LT877fpJEOsQrV-1" value="展商端CRM" style="rounded=0;whiteSpace=wrap;html=1;" vertex="1" parent="1">
          <mxGeometry x="260" y="30" width="120" height="60" as="geometry" />
        </mxCell>
        <mxCell id="g1EsS8LT877fpJEOsQrV-11" value="" style="edgeStyle=orthogonalEdgeStyle;rounded=0;orthogonalLoop=1;jettySize=auto;html=1;" edge="1" parent="1" source="g1EsS8LT877fpJEOsQrV-2" target="g1EsS8LT877fpJEOsQrV-10">
          <mxGeometry relative="1" as="geometry" />
        </mxCell>
        <mxCell id="g1EsS8LT877fpJEOsQrV-2" value="30个工作流" style="rounded=0;whiteSpace=wrap;html=1;" vertex="1" parent="1">
          <mxGeometry x="230" y="330" width="120" height="60" as="geometry" />
        </mxCell>
        <mxCell id="g1EsS8LT877fpJEOsQrV-53" style="edgeStyle=orthogonalEdgeStyle;rounded=0;orthogonalLoop=1;jettySize=auto;html=1;exitX=0.5;exitY=1;exitDx=0;exitDy=0;entryX=0.5;entryY=0;entryDx=0;entryDy=0;" edge="1" parent="1" source="g1EsS8LT877fpJEOsQrV-4" target="g1EsS8LT877fpJEOsQrV-2">
          <mxGeometry relative="1" as="geometry" />
        </mxCell>
        <mxCell id="g1EsS8LT877fpJEOsQrV-4" value="页面拨打模块" style="rounded=0;whiteSpace=wrap;html=1;" vertex="1" parent="1">
          <mxGeometry x="170" y="160" width="120" height="60" as="geometry" />
        </mxCell>
        <mxCell id="g1EsS8LT877fpJEOsQrV-56" style="edgeStyle=orthogonalEdgeStyle;rounded=0;orthogonalLoop=1;jettySize=auto;html=1;exitX=0.5;exitY=1;exitDx=0;exitDy=0;entryX=0.5;entryY=0;entryDx=0;entryDy=0;" edge="1" parent="1" source="g1EsS8LT877fpJEOsQrV-5" target="g1EsS8LT877fpJEOsQrV-2">
          <mxGeometry relative="1" as="geometry" />
        </mxCell>
        <mxCell id="g1EsS8LT877fpJEOsQrV-5" value="页面拜访模块" style="rounded=0;whiteSpace=wrap;html=1;" vertex="1" parent="1">
          <mxGeometry x="350" y="160" width="120" height="60" as="geometry" />
        </mxCell>
        <mxCell id="g1EsS8LT877fpJEOsQrV-55" style="edgeStyle=orthogonalEdgeStyle;rounded=0;orthogonalLoop=1;jettySize=auto;html=1;exitX=0.5;exitY=1;exitDx=0;exitDy=0;entryX=0.5;entryY=0;entryDx=0;entryDy=0;" edge="1" parent="1" source="g1EsS8LT877fpJEOsQrV-6" target="g1EsS8LT877fpJEOsQrV-2">
          <mxGeometry relative="1" as="geometry" />
        </mxCell>
        <mxCell id="g1EsS8LT877fpJEOsQrV-6" value="页面合同模块" style="rounded=0;whiteSpace=wrap;html=1;" vertex="1" parent="1">
          <mxGeometry x="550" y="160" width="120" height="60" as="geometry" />
        </mxCell>
        <mxCell id="g1EsS8LT877fpJEOsQrV-19" value="" style="edgeStyle=orthogonalEdgeStyle;rounded=0;orthogonalLoop=1;jettySize=auto;html=1;" edge="1" parent="1" source="g1EsS8LT877fpJEOsQrV-10" target="g1EsS8LT877fpJEOsQrV-18">
          <mxGeometry relative="1" as="geometry" />
        </mxCell>
        <mxCell id="g1EsS8LT877fpJEOsQrV-10" value="30个webhook动作" style="whiteSpace=wrap;html=1;rounded=0;" vertex="1" parent="1">
          <mxGeometry x="230" y="430" width="120" height="60" as="geometry" />
        </mxCell>
        <mxCell id="g1EsS8LT877fpJEOsQrV-21" style="edgeStyle=orthogonalEdgeStyle;rounded=0;orthogonalLoop=1;jettySize=auto;html=1;" edge="1" parent="1" source="g1EsS8LT877fpJEOsQrV-18" target="g1EsS8LT877fpJEOsQrV-20">
          <mxGeometry relative="1" as="geometry" />
        </mxCell>
        <mxCell id="g1EsS8LT877fpJEOsQrV-18" value="ecs的api" style="whiteSpace=wrap;html=1;rounded=0;" vertex="1" parent="1">
          <mxGeometry x="230" y="540" width="120" height="60" as="geometry" />
        </mxCell>
        <mxCell id="g1EsS8LT877fpJEOsQrV-23" style="edgeStyle=orthogonalEdgeStyle;rounded=0;orthogonalLoop=1;jettySize=auto;html=1;entryX=0;entryY=0.5;entryDx=0;entryDy=0;" edge="1" parent="1" source="g1EsS8LT877fpJEOsQrV-20" target="g1EsS8LT877fpJEOsQrV-22">
          <mxGeometry relative="1" as="geometry">
            <Array as="points">
              <mxPoint x="690" y="80" />
            </Array>
          </mxGeometry>
        </mxCell>
        <mxCell id="g1EsS8LT877fpJEOsQrV-20" value="kafka" style="shape=tapeData;whiteSpace=wrap;html=1;perimeter=ellipsePerimeter;" vertex="1" parent="1">
          <mxGeometry x="650" y="530" width="80" height="80" as="geometry" />
        </mxCell>
        <mxCell id="g1EsS8LT877fpJEOsQrV-25" value="" style="edgeStyle=orthogonalEdgeStyle;rounded=0;orthogonalLoop=1;jettySize=auto;html=1;" edge="1" parent="1" source="g1EsS8LT877fpJEOsQrV-22" target="g1EsS8LT877fpJEOsQrV-24">
          <mxGeometry relative="1" as="geometry" />
        </mxCell>
        <mxCell id="g1EsS8LT877fpJEOsQrV-28" value="" style="edgeStyle=orthogonalEdgeStyle;rounded=0;orthogonalLoop=1;jettySize=auto;html=1;" edge="1" parent="1" source="g1EsS8LT877fpJEOsQrV-22" target="g1EsS8LT877fpJEOsQrV-27">
          <mxGeometry relative="1" as="geometry" />
        </mxCell>
        <mxCell id="g1EsS8LT877fpJEOsQrV-22" value="ecs的服务程序" style="whiteSpace=wrap;html=1;rounded=0;" vertex="1" parent="1">
          <mxGeometry x="790" y="50" width="120" height="60" as="geometry" />
        </mxCell>
        <mxCell id="g1EsS8LT877fpJEOsQrV-30" value="" style="edgeStyle=orthogonalEdgeStyle;rounded=0;orthogonalLoop=1;jettySize=auto;html=1;" edge="1" parent="1" source="g1EsS8LT877fpJEOsQrV-24" target="g1EsS8LT877fpJEOsQrV-29">
          <mxGeometry relative="1" as="geometry" />
        </mxCell>
        <mxCell id="g1EsS8LT877fpJEOsQrV-24" value="明细数据" style="whiteSpace=wrap;html=1;rounded=0;" vertex="1" parent="1">
          <mxGeometry x="790" y="150" width="120" height="60" as="geometry" />
        </mxCell>
        <mxCell id="g1EsS8LT877fpJEOsQrV-31" style="edgeStyle=orthogonalEdgeStyle;rounded=0;orthogonalLoop=1;jettySize=auto;html=1;entryX=0.5;entryY=0;entryDx=0;entryDy=0;" edge="1" parent="1" source="g1EsS8LT877fpJEOsQrV-27" target="g1EsS8LT877fpJEOsQrV-29">
          <mxGeometry relative="1" as="geometry" />
        </mxCell>
        <mxCell id="g1EsS8LT877fpJEOsQrV-63" value="30张表" style="edgeLabel;html=1;align=center;verticalAlign=middle;resizable=0;points=[];" vertex="1" connectable="0" parent="g1EsS8LT877fpJEOsQrV-31">
          <mxGeometry x="0.76" relative="1" as="geometry">
            <mxPoint as="offset" />
          </mxGeometry>
        </mxCell>
        <mxCell id="g1EsS8LT877fpJEOsQrV-27" value="需要二次处理，落地到DB前需要主键唯一的逻辑处理" style="whiteSpace=wrap;html=1;rounded=0;" vertex="1" parent="1">
          <mxGeometry x="990" y="150" width="120" height="60" as="geometry" />
        </mxCell>
        <mxCell id="g1EsS8LT877fpJEOsQrV-33" style="edgeStyle=orthogonalEdgeStyle;rounded=0;orthogonalLoop=1;jettySize=auto;html=1;entryX=0;entryY=0.5;entryDx=0;entryDy=0;" edge="1" parent="1" source="g1EsS8LT877fpJEOsQrV-29" target="g1EsS8LT877fpJEOsQrV-32">
          <mxGeometry relative="1" as="geometry" />
        </mxCell>
        <mxCell id="g1EsS8LT877fpJEOsQrV-29" value="DB" style="whiteSpace=wrap;html=1;rounded=0;" vertex="1" parent="1">
          <mxGeometry x="900" y="370" width="120" height="60" as="geometry" />
        </mxCell>
        <mxCell id="g1EsS8LT877fpJEOsQrV-35" value="" style="edgeStyle=orthogonalEdgeStyle;rounded=0;orthogonalLoop=1;jettySize=auto;html=1;" edge="1" parent="1" source="g1EsS8LT877fpJEOsQrV-32" target="g1EsS8LT877fpJEOsQrV-34">
          <mxGeometry relative="1" as="geometry" />
        </mxCell>
        <mxCell id="g1EsS8LT877fpJEOsQrV-36" value="" style="edgeStyle=orthogonalEdgeStyle;rounded=0;orthogonalLoop=1;jettySize=auto;html=1;" edge="1" parent="1" source="g1EsS8LT877fpJEOsQrV-32" target="g1EsS8LT877fpJEOsQrV-34">
          <mxGeometry relative="1" as="geometry" />
        </mxCell>
        <mxCell id="g1EsS8LT877fpJEOsQrV-37" value="" style="edgeStyle=orthogonalEdgeStyle;rounded=0;orthogonalLoop=1;jettySize=auto;html=1;" edge="1" parent="1" source="g1EsS8LT877fpJEOsQrV-32" target="g1EsS8LT877fpJEOsQrV-34">
          <mxGeometry relative="1" as="geometry" />
        </mxCell>
        <mxCell id="g1EsS8LT877fpJEOsQrV-41" value="" style="edgeStyle=orthogonalEdgeStyle;rounded=0;orthogonalLoop=1;jettySize=auto;html=1;" edge="1" parent="1" source="g1EsS8LT877fpJEOsQrV-32" target="g1EsS8LT877fpJEOsQrV-40">
          <mxGeometry relative="1" as="geometry" />
        </mxCell>
        <mxCell id="g1EsS8LT877fpJEOsQrV-32" value="展商端CRM" style="rounded=0;whiteSpace=wrap;html=1;" vertex="1" parent="1">
          <mxGeometry x="1290" y="50" width="120" height="60" as="geometry" />
        </mxCell>
        <mxCell id="g1EsS8LT877fpJEOsQrV-34" value="台账查询模块" style="whiteSpace=wrap;html=1;rounded=0;" vertex="1" parent="1">
          <mxGeometry x="1181" y="150" width="120" height="60" as="geometry" />
        </mxCell>
        <mxCell id="g1EsS8LT877fpJEOsQrV-40" value="明细管理模块" style="whiteSpace=wrap;html=1;rounded=0;" vertex="1" parent="1">
          <mxGeometry x="1400" y="150" width="120" height="60" as="geometry" />
        </mxCell>
        <mxCell id="g1EsS8LT877fpJEOsQrV-51" style="edgeStyle=orthogonalEdgeStyle;rounded=0;orthogonalLoop=1;jettySize=auto;html=1;exitX=0.5;exitY=1;exitDx=0;exitDy=0;entryX=0.5;entryY=0;entryDx=0;entryDy=0;" edge="1" parent="1" source="g1EsS8LT877fpJEOsQrV-42" target="g1EsS8LT877fpJEOsQrV-2">
          <mxGeometry relative="1" as="geometry" />
        </mxCell>
        <mxCell id="g1EsS8LT877fpJEOsQrV-74" value="数据变更就触发" style="edgeLabel;html=1;align=center;verticalAlign=middle;resizable=0;points=[];" vertex="1" connectable="0" parent="g1EsS8LT877fpJEOsQrV-51">
          <mxGeometry x="0.8595" y="2" relative="1" as="geometry">
            <mxPoint as="offset" />
          </mxGeometry>
        </mxCell>
        <mxCell id="g1EsS8LT877fpJEOsQrV-42" value="其他12个模块" style="rounded=0;whiteSpace=wrap;html=1;" vertex="1" parent="1">
          <mxGeometry x="-30" y="160" width="120" height="60" as="geometry" />
        </mxCell>
        <mxCell id="g1EsS8LT877fpJEOsQrV-67" style="edgeStyle=orthogonalEdgeStyle;rounded=0;orthogonalLoop=1;jettySize=auto;html=1;exitX=0;exitY=0.5;exitDx=0;exitDy=0;" edge="1" parent="1" source="g1EsS8LT877fpJEOsQrV-64" target="g1EsS8LT877fpJEOsQrV-66">
          <mxGeometry relative="1" as="geometry" />
        </mxCell>
        <mxCell id="g1EsS8LT877fpJEOsQrV-69" value="10多张表&lt;br&gt;400+字段" style="edgeLabel;html=1;align=center;verticalAlign=middle;resizable=0;points=[];" vertex="1" connectable="0" parent="g1EsS8LT877fpJEOsQrV-67">
          <mxGeometry x="-0.0556" relative="1" as="geometry">
            <mxPoint x="-1" as="offset" />
          </mxGeometry>
        </mxCell>
        <mxCell id="g1EsS8LT877fpJEOsQrV-64" value="展商端CRM后台DB" style="whiteSpace=wrap;html=1;" vertex="1" parent="1">
          <mxGeometry x="1500" y="460" width="120" height="60" as="geometry" />
        </mxCell>
        <mxCell id="g1EsS8LT877fpJEOsQrV-68" style="edgeStyle=orthogonalEdgeStyle;rounded=0;orthogonalLoop=1;jettySize=auto;html=1;exitX=0;exitY=0.5;exitDx=0;exitDy=0;entryX=0.5;entryY=1;entryDx=0;entryDy=0;" edge="1" parent="1" source="g1EsS8LT877fpJEOsQrV-66" target="g1EsS8LT877fpJEOsQrV-29">
          <mxGeometry relative="1" as="geometry" />
        </mxCell>
        <mxCell id="g1EsS8LT877fpJEOsQrV-70" value="线上任务出现问题T+1修复" style="edgeLabel;html=1;align=center;verticalAlign=middle;resizable=0;points=[];" vertex="1" connectable="0" parent="g1EsS8LT877fpJEOsQrV-68">
          <mxGeometry x="-0.2667" y="2" relative="1" as="geometry">
            <mxPoint as="offset" />
          </mxGeometry>
        </mxCell>
        <mxCell id="g1EsS8LT877fpJEOsQrV-66" value="odps逻辑加工成表" style="whiteSpace=wrap;html=1;" vertex="1" parent="1">
          <mxGeometry x="1200" y="460" width="120" height="60" as="geometry" />
        </mxCell>
        <mxCell id="g1EsS8LT877fpJEOsQrV-71" value="每个模块界面有一套字段" style="text;html=1;align=center;verticalAlign=middle;resizable=0;points=[];autosize=1;strokeColor=none;fillColor=none;" vertex="1" parent="1">
          <mxGeometry x="-200" y="180" width="160" height="30" as="geometry" />
        </mxCell>
        <mxCell id="g1EsS8LT877fpJEOsQrV-72" value="每个模块webhook功能一套字段&lt;br&gt;目前有400+的字段需要发送" style="text;html=1;align=center;verticalAlign=middle;resizable=0;points=[];autosize=1;strokeColor=none;fillColor=none;" vertex="1" parent="1">
          <mxGeometry x="360" y="435" width="190" height="40" as="geometry" />
        </mxCell>
      </root>
    </mxGraphModel>
  </diagram>
</mxfile>
